<svg width="38" height="30" viewBox="0 0 38 30" fill="none" xmlns="http://www.w3.org/2000/svg">
<g clip-path="url(#clip0_31_21289)">
<path d="M7.42469 16.6732C7.10728 16.6752 6.80354 16.8027 6.5798 17.0279C6.35605 17.2532 6.23046 17.5578 6.23047 17.8753C6.23241 18.1916 6.35886 18.4943 6.5824 18.7179C6.80594 18.9416 7.10856 19.068 7.42469 19.07C7.73694 19.0623 8.03392 18.9333 8.25269 18.7102C8.47146 18.4872 8.59483 18.1878 8.59666 17.8753C8.59676 17.5616 8.47423 17.2603 8.25526 17.0357C8.03628 16.8111 7.73822 16.681 7.42469 16.6732Z" fill="#2C2C2C"/>
<path d="M38 10.3957C38 4.6599 31.9102 0.00741577 24.4185 0.00741577C18.2916 0.00741577 13.1068 3.13133 11.423 7.42765C4.9549 8.22161 0 12.5105 0 17.675C0 21.3851 2.5813 24.8207 6.78703 26.6757C6.49016 27.3798 6.0565 28.0179 5.51122 28.5531C5.39684 28.6593 5.31567 28.7965 5.2775 28.9479C5.23933 29.0993 5.24579 29.2585 5.29611 29.4064C5.3446 29.5527 5.4339 29.6822 5.55349 29.7795C5.67308 29.8768 5.81798 29.9378 5.97111 29.9555C6.34742 30.0046 6.7265 30.0294 7.10599 30.0297C8.01166 30.0771 8.91626 29.9181 9.7515 29.5646C10.5867 29.2111 11.3308 28.6724 11.9274 27.9891C18.6032 28.6124 24.3888 25.533 26.4064 21.0957C26.9975 21.6606 27.6961 22.1008 28.4606 22.3902C29.2252 22.6795 30.0401 22.8121 30.8569 22.7801C31.2362 22.7788 31.615 22.7565 31.9918 22.7133C32.1458 22.6951 32.2913 22.6329 32.411 22.5343C32.5307 22.4356 32.6195 22.3046 32.6668 22.1568C32.7165 22.0101 32.7226 21.8521 32.6845 21.702C32.6463 21.5519 32.5654 21.416 32.4517 21.3109C31.9105 20.771 31.4797 20.1309 31.1833 19.4262C35.4187 17.5414 38 14.1504 38 10.3957ZM11.6455 26.2899C11.4938 26.27 11.3395 26.2945 11.2013 26.3603C11.0631 26.4261 10.9469 26.5305 10.8667 26.6609C10.5073 27.1589 10.0394 27.5687 9.4984 27.8592C8.9574 28.1498 8.35744 28.3134 7.7439 28.3379C8.1571 27.7129 8.4327 27.0072 8.55241 26.2676C8.57656 26.0865 8.53926 25.9025 8.44646 25.7451C8.35366 25.5877 8.21074 25.466 8.0406 25.3995C4.08706 23.8709 1.63185 20.8954 1.63185 17.6453C1.63185 13.4751 5.6299 9.98762 10.9557 9.10462C10.8787 9.53073 10.839 9.96274 10.837 10.3957C10.8622 11.576 11.1218 12.7394 11.6006 13.8184C12.0794 14.8974 12.7679 15.8703 13.626 16.6807H13.5815C13.2641 16.6826 12.9603 16.8102 12.7366 17.0354C12.5128 17.2606 12.3873 17.5652 12.3873 17.8828C12.3892 18.199 12.5157 18.5017 12.7392 18.7254C12.9627 18.949 13.2654 19.0755 13.5815 19.0774C13.8989 19.0774 14.2034 18.9518 14.4286 18.728C14.6537 18.5041 14.7812 18.2003 14.7831 17.8828C14.7872 17.821 14.7872 17.759 14.7831 17.6972C17.5703 19.7613 20.9586 20.8511 24.4259 20.7989H24.7375C22.7941 24.4793 17.5573 26.9948 11.6455 26.2899ZM29.9594 18.1276C29.7879 18.1944 29.6439 18.3173 29.551 18.4762C29.4581 18.6352 29.4217 18.8209 29.4476 19.0032C29.5679 19.7416 29.8462 20.4452 30.2635 21.066C29.6487 21.0477 29.0465 20.8867 28.5046 20.5957C27.9626 20.3046 27.4957 19.8916 27.1407 19.3891C27.0968 19.3254 27.0444 19.268 26.985 19.2184C26.839 19.085 26.6486 19.0109 26.4509 19.0106H26.3545H26.1987C25.9094 19.0106 25.6276 19.07 25.3457 19.0848C25.0638 19.0997 24.7226 19.0848 24.4185 19.0848C23.1334 19.0839 21.8532 18.9269 20.6059 18.6174C19.9081 18.4451 19.2238 18.2219 18.5587 17.9495C14.9315 16.4655 12.4689 13.5864 12.4689 10.3215C12.4738 9.82139 12.536 9.32346 12.6543 8.83749C12.7202 8.55851 12.8019 8.28351 12.8991 8.01384C13.0061 7.72969 13.1299 7.45218 13.27 7.18278C14.9982 3.89562 19.3375 1.55083 24.3963 1.55083C30.9904 1.55083 36.3459 5.48355 36.3459 10.3141C36.3681 13.6532 33.9129 16.6213 29.9594 18.1499V18.1276Z" fill="#2C2C2C"/>
<path d="M18.2392 9.42371C18.1185 9.42892 17.9989 9.44886 17.8831 9.48307C17.641 9.55872 17.4292 9.70954 17.2785 9.91366C17.1278 10.1178 17.046 10.3646 17.0449 10.6184C17.044 10.7759 17.0741 10.932 17.1337 11.0778C17.1933 11.2236 17.2811 11.3562 17.3921 11.4679C17.5031 11.5796 17.6351 11.6683 17.7804 11.7288C17.9258 11.7893 18.0817 11.8204 18.2392 11.8204C18.5579 11.8204 18.8635 11.6938 19.0889 11.4684C19.3142 11.2429 19.4408 10.9372 19.4408 10.6184C19.4409 10.3707 19.363 10.1292 19.2183 9.92828C19.1071 9.77218 18.9602 9.64494 18.7899 9.55716C18.6196 9.46939 18.4308 9.42363 18.2392 9.42371Z" fill="#2C2C2C"/>
<path d="M24.4192 9.42371C24.1477 9.42396 23.8845 9.5167 23.6728 9.68665C23.4611 9.8566 23.3136 10.0936 23.2546 10.3587C23.2433 10.4449 23.2433 10.5322 23.2546 10.6184C23.2536 10.7759 23.2838 10.932 23.3434 11.0778C23.4029 11.2236 23.4908 11.3562 23.6017 11.4679C23.7127 11.5796 23.8447 11.6683 23.9901 11.7288C24.1355 11.7893 24.2914 11.8204 24.4488 11.8204C24.5675 11.82 24.6853 11.8 24.7974 11.7611C25.0422 11.6864 25.2564 11.535 25.4087 11.3293C25.5609 11.1235 25.6431 10.8743 25.643 10.6184C25.6431 10.459 25.6113 10.3011 25.5494 10.1542C25.4875 10.0073 25.3969 9.87427 25.2828 9.76294C25.1688 9.65161 25.0336 9.56424 24.8853 9.50598C24.7369 9.44772 24.5785 9.41975 24.4192 9.42371Z" fill="#2C2C2C"/>
<path d="M30.5751 9.42371C30.2584 9.42371 29.9546 9.54957 29.7307 9.77361C29.5067 9.99765 29.3809 10.3015 29.3809 10.6184C29.3799 10.7759 29.4101 10.932 29.4697 11.0778C29.5292 11.2236 29.617 11.3562 29.728 11.4679C29.839 11.5796 29.971 11.6683 30.1164 11.7288C30.2618 11.7893 30.4177 11.8204 30.5751 11.8204C30.7326 11.8204 30.8885 11.7893 31.0338 11.7288C31.1792 11.6683 31.3112 11.5796 31.4222 11.4679C31.5332 11.3562 31.621 11.2236 31.6806 11.0778C31.7401 10.932 31.7703 10.7759 31.7693 10.6184C31.7693 10.3015 31.6435 9.99765 31.4195 9.77361C31.1956 9.54957 30.8918 9.42371 30.5751 9.42371Z" fill="#2C2C2C"/>
</g>
<defs>
<clipPath id="clip0_31_21289">
<rect width="38" height="30" fill="white"/>
</clipPath>
</defs>
</svg>
