<svg xmlns="http://www.w3.org/2000/svg" width="30" height="30" viewBox="0 0 30 30">
    <defs>
        <style>
            .cls-2{fill:#30353c}
        </style>
    </defs>
    <g id="그룹_725" transform="translate(-20 -205)">
        <g id="그룹_723" transform="translate(0 -60)">
            <g id="그룹_720" transform="translate(-324 245)">
                <circle id="타원_114" cx="15" cy="15" r="15" fill="#c9c9c9" transform="translate(344 20)"/>
            </g>
        </g>
        <g id="shopping-bag" transform="translate(26 204.499)">
            <path id="패스_486" d="M337.982 235.463a.481.481 0 1 0-.481-.481.482.482 0 0 0 .481.481z" class="cls-2" transform="translate(-325.571 -219.717)"/>
            <path id="패스_487" d="M144.982 235.463a.481.481 0 1 0-.481-.481.481.481 0 0 0 .481.481z" class="cls-2" transform="translate(-139.393 -219.717)"/>
            <path id="패스_488" d="M18 157.449L16.7 145a.542.542 0 0 0-.524-.5H12.92v2.353a1.691 1.691 0 0 1 1.055 1.6 1.586 1.586 0 1 1-3.164 0 1.691 1.691 0 0 1 1.055-1.6V144.5H6.135v2.353a1.691 1.691 0 0 1 1.055 1.6 1.642 1.642 0 0 1-1.582 1.692 1.642 1.642 0 0 1-1.582-1.692 1.691 1.691 0 0 1 1.055-1.6V144.5H1.827a.542.542 0 0 0-.524.5L0 157.449a.59.59 0 0 0 .131.439.513.513 0 0 0 .393.188h16.949a.513.513 0 0 0 .393-.188.59.59 0 0 0 .134-.439z" class="cls-2" transform="translate(0 -133.575)"/>
            <path id="패스_489" d="M145.463 10.076a2.613 2.613 0 0 1 5.226 0v.85h.962v-.85a3.575 3.575 0 0 0-7.15 0v.85h.962z" class="cls-2" transform="translate(-139.076)"/>
        </g>
    </g>
</svg>
