<svg xmlns="http://www.w3.org/2000/svg" width="30" height="30" viewBox="0 0 30 30">
    <g>
        <g transform="translate(-20 -385) translate(-324 365)">
            <circle cx="15" cy="15" r="15" fill="#c9c9c9" transform="translate(344 20)"/>
        </g>
        <g>
            <g>
                <path fill="#30353c" d="M19.566 23.96a2.626 2.626 0 0 0-1.02-.9c.139-1.827-.419-3.354-1.27-3.428h-.031a7.963 7.963 0 0 0-15.919 0h-.031c-.865.079-1.432 1.654-1.267 3.522s1 3.321 1.866 3.246l2.822-.245a.9.9 0 0 0 .611-.316.886.886 0 0 0 .207-.652L5.093 20.2a.9.9 0 0 0-.976-.811l-.746.065a5.928 5.928 0 0 1 11.83 0l-.746-.065a.9.9 0 0 0-.976.811l-.442 4.986a.887.887 0 0 0 .207.652.9.9 0 0 0 .611.316l2.822.245c.636.055 1.254-.72 1.6-1.875a1.207 1.207 0 0 1 .255 1.383l-.9 2.042a1.713 1.713 0 0 1-1.572 1.021h-1.199a.768.768 0 0 0-.732-.546h-2.235a.774.774 0 0 0-.778.771v.9a.774.774 0 0 0 .778.771h2.235a.768.768 0 0 0 .732-.546h1.206a3.071 3.071 0 0 0 2.817-1.83l.9-2.042a2.593 2.593 0 0 0-.218-2.488z" transform="translate(-20 -385) translate(25.5 378.64) translate(0 11.86) translate(0 -11.86)"/>
            </g>
        </g>
    </g>
</svg>
