<svg xmlns="http://www.w3.org/2000/svg" width="30" height="30" viewBox="0 0 30 30">
    <defs>
        <style>
            .cls-2{fill:#454a52}
        </style>
    </defs>
    <g id="그룹_736" transform="translate(-20 -563)">
        <rect id="사각형_981" width="30" height="30" fill="#c9c9c9" rx="4" transform="translate(20 563)"/>
        <g id="chat" transform="translate(25 551.504)">
            <path id="패스_476" d="M13.014 20.825A6.86 6.86 0 0 0 0 23.831a6.762 6.762 0 0 0 .654 2.921l-.642 3.214a.586.586 0 0 0 .688.69l3.253-.643a6.739 6.739 0 0 0 1.357.475 8.016 8.016 0 0 1 7.704-9.663z" class="cls-2"/>
            <path id="패스_477" d="M174.544 154.759a6.815 6.815 0 0 0 .293-.723h-.021a6.843 6.843 0 0 0-6.154-9.025 6.835 6.835 0 1 0-.328 13.663 6.761 6.761 0 0 0 2.912-.654c3.562.7 3.285.654 3.366.654a.586.586 0 0 0 .575-.7z" class="cls-2" transform="translate(-155.199 -122.677)"/>
        </g>
    </g>
</svg>
