<svg width="134" height="152" viewBox="0 0 134 152" fill="none" xmlns="http://www.w3.org/2000/svg">
<path d="M84.9882 73.1266C99.9777 75.0879 111.815 79.0804 120.501 85.1043C129.186 90.988 133.529 99.1833 133.529 109.69C133.529 124.119 126.805 134.696 113.356 141.42C99.9077 148.144 82.3265 151.507 60.6126 151.507H0.93457V145.623H18.796V5.88376H0.93457V0H57.8809C77.9137 0 94.0239 3.08194 106.212 9.24588C118.399 15.2697 124.493 24.7958 124.493 37.8241C124.493 47.3502 120.921 55.0551 113.777 60.9389C106.772 66.6825 97.176 70.535 84.9882 72.4962V73.1266ZM49.6857 5.88376V69.9746H63.3444C74.1313 69.9746 81.626 67.383 85.8287 62.1997C90.1715 56.8763 92.3429 48.7511 92.3429 37.8241C92.3429 27.0372 89.6111 19.0521 84.1477 13.8688C78.6842 8.54544 69.3682 5.88376 56.1998 5.88376H49.6857ZM59.1417 145.623C74.2713 145.623 84.9181 142.751 91.0821 137.007C97.3861 131.264 100.538 122.158 100.538 109.69C100.538 98.2026 97.7363 89.7272 92.1327 84.2637C86.5292 78.6601 77.1432 75.8584 63.9748 75.8584H49.6857V145.623H59.1417Z" fill="#FFFAF3"/>
</svg>
