<svg width="61" height="149" viewBox="0 0 61 149" fill="none" xmlns="http://www.w3.org/2000/svg">
<path d="M9.87628 19.1222C9.87628 14.079 11.7675 9.66616 15.5499 5.88376C19.3323 1.96126 23.7451 0 28.7884 0C33.8316 0 38.2444 1.96126 42.0268 5.88376C45.8092 9.66616 47.7004 14.079 47.7004 19.1222C47.7004 24.1654 45.8092 28.5782 42.0268 32.3606C38.3845 36.003 33.9717 37.8241 28.7884 37.8241C23.6051 37.8241 19.1222 36.003 15.3398 32.3606C11.6975 28.5782 9.87628 24.1654 9.87628 19.1222ZM15.3398 63.4605H0V57.5767H45.3889V142.681H60.7287V148.565H0V142.681H15.3398V103.071V63.4605Z" fill="#FFFAF3"/>
</svg>
