<svg width="128" height="95" viewBox="0 0 128 95" fill="none" xmlns="http://www.w3.org/2000/svg">
<path d="M111.99 85.1043H127.12V90.988H83.2018V75.0179C80.4 80.6214 76.4075 85.1743 71.2242 88.6766C66.181 92.3189 60.017 94.14 52.7324 94.14C41.8054 94.14 32.9097 91.5484 26.0454 86.3651C19.181 81.3219 15.7488 73.2667 15.7488 62.1997V5.88376H0.619141V0H45.3777V65.9821C45.3777 73.4068 46.5684 78.8703 48.95 82.3726C51.3315 85.8748 54.8337 87.6259 59.4567 87.6259C62.9589 87.6259 66.4611 86.3651 69.9634 83.8435C73.6057 81.3219 76.5476 77.8197 78.789 73.3368C81.1705 68.7138 82.3613 63.5305 82.3613 57.7869V5.88376H68.0722V0H111.99V85.1043Z" fill="#FFFAF3"/>
</svg>
