<svg width="91" height="94" viewBox="0 0 91 94" fill="none" xmlns="http://www.w3.org/2000/svg">
<path d="M63.4605 1.8912C66.9627 0.6304 71.4456 0 76.9091 0C82.5126 0 87.2056 0.770486 90.988 2.31147V39.0849C88.6065 39.225 86.5052 39.225 84.684 39.0849C82.8629 38.9448 81.1818 38.3845 79.6408 37.4039L64.9315 8.82563C64.5112 8.12518 63.9508 7.91505 63.2504 8.19522C61.0089 8.89567 58.4173 10.7869 55.4754 13.8688C52.5335 16.9508 49.9419 20.5931 47.7004 24.7958C45.459 28.9985 44.1982 33.2012 43.918 37.4039V88.0462H57.5767V93.9299H0V88.0462H14.2891V8.82563H0V2.94187H43.0775V20.8033C45.5991 15.9001 48.611 11.8376 52.1133 8.6155C55.7556 5.39344 59.538 3.15201 63.4605 1.8912Z" fill="#FFFAF3"/>
</svg>
