<svg width="81" height="133" viewBox="0 0 81 133" fill="none" xmlns="http://www.w3.org/2000/svg">
<path d="M80.0611 117.045C78.2399 121.528 75.158 125.24 70.8152 128.182C66.4724 131.124 61.219 132.595 55.0551 132.595C31.2399 132.595 19.3323 122.228 19.3323 101.495V44.3383H0V38.8748C12.608 38.5946 22.5544 35.0924 29.8391 28.3681C37.1237 21.6438 41.6766 12.1878 43.4977 0H48.9612V38.4545H77.3293V44.3383H48.9612V107.378C48.9612 119.846 52.3934 126.08 59.2578 126.08C62.62 126.08 65.7019 125.03 68.5037 122.928C71.4456 120.827 73.7571 117.955 75.4381 114.313L80.0611 117.045Z" fill="#FFFAF3"/>
</svg>
