<svg width="99" height="98" viewBox="0 0 99 98" fill="none" xmlns="http://www.w3.org/2000/svg">
<path d="M56.3159 91.1982C64.8614 91.1982 72.1461 89.1669 78.1699 85.1043C84.1937 81.0417 88.6766 75.3681 91.6184 68.0834L97.5022 70.605C90.3577 88.3964 75.7884 97.2921 53.7943 97.2921C44.1282 97.2921 35.1624 95.3308 26.8972 91.4083C18.772 87.4858 12.2578 81.8822 7.35468 74.5976C2.45155 67.1728 0 58.4873 0 48.541C0 38.7347 2.45155 30.1893 7.35468 22.9046C12.2578 15.4799 18.7019 9.80625 26.687 5.88375C34.6721 1.96125 43.2176 0 52.3234 0C60.8688 0 68.6438 1.75111 75.6483 5.25335C82.6528 8.6155 88.1863 13.6587 92.2489 20.383C96.4516 27.1073 98.5529 35.3025 98.5529 44.9687H32.7809V48.541C32.7809 61.8495 34.6721 72.2861 38.4546 79.8509C42.3771 87.4158 48.3309 91.1982 56.3159 91.1982ZM51.2727 5.67361C45.8093 5.67361 41.6066 8.68553 38.6647 14.7094C35.7228 20.5931 33.8316 28.7183 32.9911 39.0849H65.772V38.0343C65.772 27.2474 64.5812 19.1922 62.1997 13.8688C59.9582 8.40536 56.3159 5.67361 51.2727 5.67361Z" fill="#FFFAF3"/>
</svg>
