<svg width="27" height="32" viewBox="0 0 27 32" fill="none" xmlns="http://www.w3.org/2000/svg">
<path d="M19.6453 6.26482C19.6453 7.50406 19.2845 8.71547 18.6087 9.7458C17.9329 10.7761 16.9723 11.5791 15.8485 12.0532C14.7248 12.5272 13.4882 12.651 12.2954 12.4089C11.1025 12.1669 10.0069 11.5698 9.14713 10.6932C8.28737 9.81665 7.70209 8.69997 7.4653 7.48443C7.22852 6.2689 7.35088 5.00912 7.8169 3.86445C8.28292 2.71978 9.07168 1.74164 10.0834 1.05376C11.0951 0.365879 12.2843 -0.000834208 13.5006 1.42495e-06C15.1307 0.00112132 16.6936 0.661656 17.8458 1.83642C18.998 3.01118 19.6453 4.60402 19.6453 6.26482Z" fill="#2C2C2C"/>
<path d="M27 27.6151C27 32.4943 22.6258 31.9831 17.2316 31.9831H9.76843C4.37838 31.9831 0 32.4943 0 27.6151C0 19.6858 6.74171 13.7083 14.35 13.8561C21.4856 13.9913 27 20.2308 27 27.6151Z" fill="#2C2C2C"/>
</svg>
