<svg width="37" height="23" viewBox="0 0 37 23" fill="none" xmlns="http://www.w3.org/2000/svg">
<g clip-path="url(#clip0_31_17277)">
<path d="M31.4101 0H0.586557C0.430992 0 0.28179 0.0595378 0.171789 0.165517C0.0617884 0.271495 0 0.415234 0 0.565111V14.0147C0 14.1646 0.0617884 14.3084 0.171789 14.4143C0.28179 14.5203 0.430992 14.5799 0.586557 14.5799H3.14394V13.4496H1.17311V1.13022H22.8757V3.02899H31.9849V0.565111C31.985 0.417172 31.9248 0.275117 31.8173 0.169457C31.7098 0.0637975 31.5636 0.00295877 31.4101 0Z" fill="white"/>
<path d="M34.5664 3.0293H3.74281C3.58724 3.0293 3.43804 3.08883 3.32804 3.19481C3.21804 3.30079 3.15625 3.44453 3.15625 3.59441V17.044C3.15625 17.1939 3.21804 17.3377 3.32804 17.4436C3.43804 17.5496 3.58724 17.6092 3.74281 17.6092H24.6829C24.6613 17.4215 24.6515 17.2328 24.6536 17.044C24.6516 16.8553 24.6614 16.6666 24.6829 16.4789H4.32936V4.15952H26.032V13.2917C26.2138 13.08 26.4097 12.8799 26.6185 12.6927C26.8046 12.5274 27.0004 12.3727 27.2051 12.2293C28.2579 11.4908 29.5277 11.0949 30.83 11.0991C31.2239 11.0994 31.6169 11.1373 32.0031 11.2121C33.19 11.433 34.2833 11.9852 35.147 12.8001V3.59441C35.147 3.4455 35.0861 3.30261 34.9773 3.1968C34.8686 3.09098 34.7209 3.03079 34.5664 3.0293Z" fill="white"/>
<path d="M35.152 12.7889C34.2883 11.9741 33.195 11.4218 32.008 11.2009C31.6218 11.1262 31.2289 11.0883 30.8349 11.0879C29.5326 11.0837 28.2628 11.4796 27.21 12.2181C27.0054 12.3616 26.8095 12.5163 26.6234 12.6815C26.4146 12.8687 26.2187 13.0688 26.0369 13.2806C25.707 13.6755 25.4292 14.1083 25.2098 14.569C24.9236 15.1686 24.7451 15.8106 24.6819 16.4678C24.6605 16.6554 24.6507 16.8441 24.6526 17.0329C24.6505 17.2217 24.6603 17.4104 24.6819 17.598C24.8278 19.0729 25.5391 20.4425 26.6768 21.4394C27.8145 22.4363 29.2971 22.9888 30.8349 22.9892C32.4741 22.9877 34.0457 22.3596 35.2048 21.243C36.3638 20.1263 37.0157 18.6121 37.0172 17.0329C37.0152 16.2415 36.8491 15.4584 36.5288 14.7297C36.2085 14.0009 35.7404 13.3411 35.152 12.7889ZM30.8349 21.8702C29.6085 21.8688 28.4251 21.4345 27.5085 20.6493C26.5919 19.8642 26.0058 18.7827 25.8609 17.6093C25.8373 17.4218 25.8256 17.2331 25.8257 17.0442C25.8256 16.8553 25.8373 16.6666 25.8609 16.4791C25.8952 16.1979 25.9541 15.92 26.0369 15.6484C26.1576 15.2751 26.3229 14.9167 26.5296 14.5803C26.5643 14.5334 26.5956 14.4843 26.6234 14.4334C26.7974 14.1785 26.9936 13.9384 27.21 13.7157C27.6774 13.2425 28.2397 12.8657 28.8628 12.6083C29.486 12.3508 30.1569 12.2181 30.8349 12.2181C31.2305 12.2188 31.6245 12.2663 32.008 12.3594C32.6626 12.5139 33.2782 12.7936 33.8183 13.182C34.3584 13.5703 34.812 14.0593 35.152 14.6199C35.6036 15.3559 35.8425 16.1949 35.8441 17.0498C35.841 18.3303 35.3105 19.5572 34.369 20.4611C33.4276 21.3649 32.1522 21.8717 30.8232 21.8702H30.8349Z" fill="white"/>
<path d="M33.7794 15.8343C33.6695 15.729 33.5208 15.6699 33.3658 15.6699C33.2109 15.6699 33.0622 15.729 32.9523 15.8343L31.1105 17.6087L30.8231 17.8856L30.5357 17.6087L28.6881 15.8343C28.5782 15.729 28.4295 15.6699 28.2745 15.6699C28.1196 15.6699 27.9709 15.729 27.861 15.8343C27.806 15.8868 27.7624 15.9493 27.7326 16.0182C27.7028 16.087 27.6875 16.1609 27.6875 16.2355C27.6875 16.3101 27.7028 16.3839 27.7326 16.4528C27.7624 16.5217 27.806 16.5842 27.861 16.6367L28.8757 17.6087L30.4067 19.0893C30.4615 19.1417 30.5265 19.1831 30.5979 19.2112C30.6694 19.2393 30.7459 19.2536 30.8231 19.2532C30.977 19.2525 31.1245 19.1937 31.2337 19.0893L32.7705 17.6087L33.7794 16.6367C33.8343 16.5842 33.878 16.5217 33.9078 16.4528C33.9375 16.3839 33.9529 16.3101 33.9529 16.2355C33.9529 16.1609 33.9375 16.087 33.9078 16.0182C33.878 15.9493 33.8343 15.8868 33.7794 15.8343Z" fill="white"/>
<path d="M7.96937 8.36362H16.5507C16.7063 8.36362 16.8554 8.30408 16.9654 8.1981C17.0754 8.09212 17.1373 7.94839 17.1373 7.79851C17.1373 7.64863 17.0754 7.50489 16.9654 7.39892C16.8554 7.29294 16.7063 7.2334 16.5507 7.2334H7.96937C7.8138 7.2334 7.6646 7.29294 7.5546 7.39892C7.4446 7.50489 7.38281 7.64863 7.38281 7.79851C7.38281 7.94839 7.4446 8.09212 7.5546 8.1981C7.6646 8.30408 7.8138 8.36362 7.96937 8.36362Z" fill="white"/>
<path d="M21.075 11.376H7.9889C7.83334 11.376 7.68413 11.4355 7.57413 11.5415C7.46413 11.6475 7.40234 11.7912 7.40234 11.9411C7.40234 12.091 7.46413 12.2347 7.57413 12.3407C7.68413 12.4467 7.83334 12.5062 7.9889 12.5062H21.075C21.2305 12.5062 21.3797 12.4467 21.4897 12.3407C21.5997 12.2347 21.6615 12.091 21.6615 11.9411C21.6615 11.7912 21.5997 11.6475 21.4897 11.5415C21.3797 11.4355 21.2305 11.376 21.075 11.376Z" fill="white"/>
</g>
<defs>
<clipPath id="clip0_31_17277">
<rect width="37" height="23" fill="white"/>
</clipPath>
</defs>
</svg>
