<svg width="15" height="13" viewBox="0 0 15 13" fill="none" xmlns="http://www.w3.org/2000/svg">
<path d="M14.3256 7.44902L14.3257 7.44902C14.4824 7.44902 14.6327 7.51111 14.7435 7.62166C14.8544 7.73222 14.9167 7.8822 14.9167 8.03861V10.9768V10.9773C14.9139 11.2626 14.7978 11.5352 14.5939 11.7353C14.3901 11.9353 14.1151 12.0466 13.8292 12.0448M14.3256 7.44902L13.8293 11.9948M14.3256 7.44902C14.169 7.44934 14.0189 7.51152 13.9081 7.62198C13.7974 7.73245 13.735 7.88222 13.7346 8.0385V8.03861V10.8656H2.13203V8.03861C2.13203 7.96116 2.11673 7.88448 2.08702 7.81294C2.05731 7.7414 2.01376 7.6764 1.95888 7.62166C1.90399 7.56692 1.83884 7.5235 1.76714 7.49388C1.69545 7.46426 1.61861 7.44902 1.54101 7.44902L1.54091 7.44902C1.38433 7.44934 1.23424 7.51152 1.12348 7.62198C1.01272 7.73245 0.950322 7.88222 0.95 8.0385V8.03861L0.949997 10.9768L0.950003 10.9774C0.953091 11.2628 1.06943 11.5353 1.27351 11.7354C1.47753 11.9354 1.75263 12.0466 2.03863 12.0448M14.3256 7.44902L2.03852 11.9948M13.8292 12.0448C13.8291 12.0448 13.829 12.0448 13.8289 12.0448L13.8293 11.9948M13.8292 12.0448H13.8293V11.9948M13.8292 12.0448H2.03863M13.8293 11.9948H2.03852M2.03863 12.0448C2.0387 12.0448 2.03877 12.0448 2.03885 12.0448L2.03852 11.9948M2.03863 12.0448H2.03852V11.9948M1.15879 7.65739C1.05739 7.75851 1.00029 7.89559 1 8.03861L2.08203 10.8656V8.03861C2.08203 7.96775 2.06803 7.89758 2.04084 7.83212C2.01365 7.76665 1.97381 7.70717 1.92357 7.65706C1.87333 7.60696 1.81369 7.56721 1.74805 7.5401C1.68241 7.51298 1.61206 7.49902 1.54101 7.49902C1.39762 7.49932 1.26018 7.55626 1.15879 7.65739ZM13.7346 10.9156H2.13203H13.7346ZM13.7846 8.03861V10.8656L14.3257 7.49902C14.1823 7.49932 14.0448 7.55626 13.9434 7.65739C13.842 7.75851 13.7849 7.89559 13.7846 8.03861Z" fill="white" stroke="white" stroke-width="0.1"/>
<path d="M8.531 6.8245V0.643106C8.531 0.486696 8.4687 0.336719 8.35785 0.226162C8.247 0.115609 8.09669 0.0535243 7.93999 0.0535243C7.78328 0.0535243 7.63297 0.115609 7.52212 0.226162C7.41127 0.336719 7.34897 0.486696 7.34897 0.643106V6.82895L4.68125 4.1683L4.68118 4.16823C4.57019 4.05795 4.41994 3.99606 4.26333 3.99606C4.10672 3.99606 3.95646 4.05795 3.84547 4.16823L3.84534 4.16836C3.73476 4.27906 3.67266 4.42898 3.67266 4.5853C3.67266 4.74161 3.73476 4.89153 3.84534 5.00223L3.84538 5.00228L7.51739 8.66901C7.51741 8.66903 7.51743 8.66904 7.51744 8.66906C7.57211 8.72422 7.63729 8.76792 7.70913 8.79758L8.531 6.8245ZM8.531 6.8245L11.1987 4.16384L11.1988 4.16378C11.3098 4.0535 11.46 3.99161 11.6166 3.99161C11.7733 3.99161 11.9235 4.0535 12.0345 4.16378L12.0346 4.16391C12.1452 4.27461 12.2073 4.42453 12.2073 4.58085C12.2073 4.73716 12.1452 4.88708 12.0346 4.99778L12.0346 4.99785L8.35344 8.66922L8.35323 8.66943C8.24198 8.77906 8.09217 8.84091 7.93584 8.8418M8.531 6.8245L7.93584 8.8418M7.93584 8.8418C7.93583 8.8418 7.93582 8.8418 7.93581 8.8418L7.93552 8.7918L7.93584 8.8418Z" fill="white" stroke="white" stroke-width="0.1"/>
</svg>
