<svg xmlns="http://www.w3.org/2000/svg" width="30" height="30" viewBox="0 0 30 30">
    <defs>
        <style>
            .cls-2{fill:#454a52}
        </style>
    </defs>
    <g id="그룹_802" transform="translate(-344 -85)">
        <g id="그룹_799" transform="translate(324 -539)">
            <rect id="사각형_982" width="30" height="30" fill="#c9c9c9" rx="4" transform="translate(20 624)"/>
        </g>
        <g id="그룹_800" transform="translate(-120.363 74.571)">
            <path id="패스_508" d="M587.867 132.17l-1.111-1.111-.8.8 1.39 1.39a.565.565 0 0 0 .66.1 3.021 3.021 0 0 1 3.694.66 3.066 3.066 0 0 1 .946 2.937l-1.455-1.455a.566.566 0 0 0-.8 0l-1.6 1.6a.566.566 0 0 0 0 .8l1.409 1.409a2.98 2.98 0 0 1-2.771-1.022 2.872 2.872 0 0 1-.714-3.528.566.566 0 0 0-.11-.645l-1.45-1.45-.8.8 1.179 1.179a4.435 4.435 0 0 0 5.95 5.4.566.566 0 0 0 .148-.907l-1.641-1.641.8-.8 1.673 1.673a.566.566 0 0 0 .9-.14 4.427 4.427 0 0 0-5.5-6.057z" class="cls-2" transform="translate(-104.992 -105.566)"/>
            <path id="패스_509" d="M476.249 23.179a.566.566 0 0 0-.645-.11 2.878 2.878 0 0 1-3.537-.7 3.073 3.073 0 0 1-1.019-2.787l1.945 1.945a.566.566 0 0 0 .8 0l1.6-1.6a.566.566 0 0 0 0-.8l-1.976-1.976a3.059 3.059 0 0 1 2.929.938 3.021 3.021 0 0 1 .66 3.694.566.566 0 0 0 .1.661l1.453 1.452.8-.8-1.173-1.173a4.147 4.147 0 0 0-1.042-4.634 4.145 4.145 0 0 0-5.007-.861.566.566 0 0 0-.142.9l2.2 2.2-.8.8-2.176-2.176a.566.566 0 0 0-.906.147 4 4 0 0 0 .956 4.872 4.005 4.005 0 0 0 4.454 1.085l1.242 1.242.8-.8z" class="cls-2"/>
            <path id="사각형_1098" d="M0 0H1.132V1.132H0z" class="cls-2" transform="rotate(-45 268.687 -564.364)"/>
            <path id="패스_510" d="M586.608 22.44a.566.566 0 0 0 .1-.661 3.021 3.021 0 0 1 .66-3.694 3.059 3.059 0 0 1 2.929-.938l-1.976 1.976a.566.566 0 0 0 0 .8l1.6 1.6a.566.566 0 0 0 .8 0l1.945-1.945a3.073 3.073 0 0 1-1.019 2.787 2.878 2.878 0 0 1-3.537.7.565.565 0 0 0-.645.11l-1.513 1.513.8.8L588 24.251a4.005 4.005 0 0 0 4.454-1.085 4 4 0 0 0 .956-4.872.566.566 0 0 0-.906-.147l-2.176 2.176-.8-.8 2.2-2.2a.566.566 0 0 0-.142-.9 4.145 4.145 0 0 0-5.008.861 4.147 4.147 0 0 0-1.042 4.634l-1.173 1.173.8.8z" class="cls-2" transform="translate(-104.992)"/>
            <path id="사각형_1099" d="M0 0H1.132V1.132H0z" class="cls-2" transform="rotate(-45 271.42 -565.496)"/>
            <path id="패스_511" d="M477.137 134.11a.566.566 0 0 0-.11.645 2.872 2.872 0 0 1-.714 3.528 2.98 2.98 0 0 1-2.771 1.022l1.409-1.409a.566.566 0 0 0 0-.8l-1.6-1.6a.566.566 0 0 0-.8 0l-1.455 1.455a3.066 3.066 0 0 1 .946-2.937 3.021 3.021 0 0 1 3.694-.66.565.565 0 0 0 .66-.1l1.39-1.39-.8-.8-1.111 1.111a4.427 4.427 0 0 0-5.5 6.057.566.566 0 0 0 .9.14l1.673-1.673.8.8-1.641 1.641a.566.566 0 0 0 .148.907 4.435 4.435 0 0 0 5.949-5.4l1.179-1.179-.8-.8z" class="cls-2" transform="translate(-.024 -105.566)"/>
            <path id="사각형_1100" d="M0 0H1.132V1.132H0z" class="cls-2" transform="rotate(-45 270.854 -566.862)"/>
            <path id="사각형_1101" d="M0 0H1.132V1.132H0z" class="cls-2" transform="rotate(-45 271.986 -564.13)"/>
            <path id="사각형_1102" d="M0 0H1.132V1.132H0z" class="cls-2" transform="rotate(-45 269.254 -562.998)"/>
            <path id="사각형_1103" d="M0 0H1.132V1.132H0z" class="cls-2" transform="rotate(-45 268.122 -565.73)"/>
        </g>
    </g>
</svg>
