<svg xmlns="http://www.w3.org/2000/svg" width="30" height="30" viewBox="0 0 30 30">
    <g>
        <g>
            <g transform="translate(-20 -145) translate(0 -120) translate(-324 245)">
                <circle cx="15" cy="15" r="15" fill="#c9c9c9" transform="translate(344 20)"/>
            </g>
        </g>
        <g>
            <g>
                <path fill="#30353c" d="M24.4 10.973l-1.7-1.294A6.345 6.345 0 0 0 22.74 9a6.154 6.154 0 0 0-.04-.68l1.7-1.295a.8.8 0 0 0 .2-1.033l-1.766-2.977a.829.829 0 0 0-1.022-.358l-2 .784a6.921 6.921 0 0 0-1.2-.68L18.3.69a.811.811 0 0 0-.818-.69H13.94a.809.809 0 0 0-.815.684l-.306 2.078a7.134 7.134 0 0 0-1.2.68l-2.01-.786a.846.846 0 0 0-1.014.352L6.824 5.989a.792.792 0 0 0 .2 1.039l1.7 1.294a5.78 5.78 0 0 0 0 1.358l-1.7 1.295a.8.8 0 0 0-.2 1.034l1.767 2.977a.828.828 0 0 0 1.022.358l2-.784a6.982 6.982 0 0 0 1.2.68l.3 2.07a.811.811 0 0 0 .827.69h3.543a.81.81 0 0 0 .816-.684l.306-2.078a7.168 7.168 0 0 0 1.2-.681l2.01.786a.847.847 0 0 0 .3.056.817.817 0 0 0 .712-.407L24.605 12a.8.8 0 0 0-.205-1.027zM15.711 12a3 3 0 1 1 3.081-3 3.044 3.044 0 0 1-3.081 3z" transform="translate(-20 -145) translate(19.29 151) translate(6.71) translate(-6.71)"/>
            </g>
        </g>
    </g>
</svg>
