<svg xmlns="http://www.w3.org/2000/svg" width="30" height="30" viewBox="0 0 30 30">
    <defs>
        <style>
            .cls-2{fill:#30353c}
        </style>
    </defs>
    <g id="그룹_722" transform="translate(-20 -327)">
        <g id="그룹_718" transform="translate(-324 307)">
            <circle id="타원_114" cx="15" cy="15" r="15" fill="#c9c9c9" transform="translate(344 20)"/>
        </g>
        <g id="customer" transform="translate(25 300.705)">
            <circle id="타원_115" cx="3.5" cy="3.5" r="3.5" class="cls-2" transform="translate(6.762 32.295)"/>
            <circle id="타원_116" cx="2.045" cy="2.045" r="2.045" class="cls-2" transform="translate(14.546 35.273)"/>
            <circle id="타원_117" cx="2.045" cy="2.045" r="2.045" class="cls-2" transform="translate(1.363 35.273)"/>
            <path id="패스_493" d="M5.36 241.147a3.553 3.553 0 0 0-2.648-.615A2.707 2.707 0 0 0 0 243.228v4.362a1.174 1.174 0 0 0 1.175 1.17c2.8 0 2.46.051 2.46-.121 0-3.09-.366-5.357 1.725-7.492z" class="cls-2" transform="translate(0 -199.774)"/>
            <path id="패스_494" d="M126.294 239.9a5.5 5.5 0 0 0-4.383 1.083c-2.1 1.755-1.7 4.119-1.7 7.01a1.373 1.373 0 0 0 1.34 1.4c8.08 0 8.4.272 8.88-.835.157-.374.114-.255.114-3.838a4.757 4.757 0 0 0-4.251-4.82z" class="cls-2" transform="translate(-115.384 -199.123)"/>
            <path id="패스_495" d="M380.458 240.534a3.55 3.55 0 0 0-2.648.615c2.076 2.119 1.725 4.232 1.725 7.493 0 .172-.28.121 2.418.121a1.216 1.216 0 0 0 1.217-1.212v-4.321a2.707 2.707 0 0 0-2.712-2.696z" class="cls-2" transform="translate(-363.17 -199.775)"/>
        </g>
    </g>
</svg>
