<svg xmlns="http://www.w3.org/2000/svg" width="30" height="30" viewBox="0 0 30 30">
    <defs>
        <style>
            .cls-2{fill:#454a52}
        </style>
    </defs>
    <g id="그룹_712" transform="translate(-344 -20)">
        <circle id="타원_114" cx="15" cy="15" r="15" fill="#c9c9c9" transform="translate(344 20)"/>
        <g id="volume" transform="translate(350 11.01)">
            <path id="패스_473" d="M10.538 16.047a.631.631 0 0 0-.64.069l-5.88 4.447H1.209A1.179 1.179 0 0 0 0 21.705v4.571a1.178 1.178 0 0 0 1.209 1.143h2.81L9.9 31.866a.635.635 0 0 0 .641.067.569.569 0 0 0 .342-.514V16.562a.571.571 0 0 0-.345-.515z" class="cls-2"/>
            <path id="패스_474" d="M342.781 122.408a.657.657 0 0 0-.855 0 .5.5 0 0 0 0 .767 4.01 4.01 0 0 1 0 6.118.5.5 0 0 0 0 .766.655.655 0 0 0 .855 0 5.016 5.016 0 0 0 0-7.658z" class="cls-2" transform="translate(-328.975 -102.248)"/>
            <path id="패스_475" d="M387.9 77.287a.641.641 0 0 0-.856 0 .531.531 0 0 0 0 .79 6.323 6.323 0 0 1 0 9.468.532.532 0 0 0 0 .792.643.643 0 0 0 .856 0 7.385 7.385 0 0 0 0-11.056z" class="cls-2" transform="translate(-372.386 -58.825)"/>
        </g>
    </g>
</svg>
