<svg width="133" height="33" viewBox="0 0 133 33" fill="none" xmlns="http://www.w3.org/2000/svg">
<path d="M0.734009 18.902C2.91001 18.1313 4.73468 17.2587 6.20801 16.284C7.70401 15.3093 8.90534 14.2893 9.81201 13.224C10.7413 12.136 11.41 11.0253 11.818 9.892C12.226 8.75867 12.43 7.62533 12.43 6.492V4.078H2.02601V2.48H17.802V6.56C17.802 8.21467 17.3487 9.824 16.442 11.388H23.276V1.494H28.376V23.322H23.276V12.986H15.354C13.9713 14.7087 12.0673 16.2273 9.64201 17.542C7.23934 18.834 4.41734 19.82 1.17601 20.5L0.734009 18.902ZM10.05 21.452V29.748C10.05 30.3147 10.3447 30.598 10.934 30.598H28.886V32.162H8.18001C7.31868 32.162 6.55934 31.958 5.90201 31.55C5.26734 31.1647 4.95001 30.5753 4.95001 29.782V21.452H10.05Z" fill="#FFFAF3"/>
<path d="M49.0299 11.014C48.2139 11.6713 47.2393 12.2607 46.1059 12.782C44.9953 13.3033 43.8279 13.768 42.6039 14.176C41.4026 14.5613 40.2013 14.9013 38.9999 15.196C37.8213 15.4907 36.7446 15.7513 35.7699 15.978L35.3959 14.38C36.5746 14.04 37.7986 13.6433 39.0679 13.19C40.3599 12.7367 41.5273 12.204 42.5699 11.592C43.6353 10.98 44.5079 10.2887 45.1879 9.518C45.8679 8.74733 46.2079 7.886 46.2079 6.934V6.594H36.2799V5.03H46.2079V0.0319977H51.2739V5.03H61.2019V6.594H51.2739V7.002C51.2739 7.614 51.1493 8.192 50.8999 8.736C50.6733 9.25733 50.3446 9.74467 49.9139 10.198C50.3673 9.94867 50.8999 9.824 51.5119 9.824C52.1239 9.824 52.7586 9.91466 53.4159 10.096L62.5619 12.952L61.3039 16.25L49.0299 11.014ZM64.5679 17.814V19.378H51.5459V23.424H60.7939V32.502H55.6939V25.022H36.9939V23.424H46.4459V19.378H33.4239V17.814H64.5679Z" fill="#FFFAF3"/>
<path d="M67.5759 24.75C69.7519 23.9793 71.6105 23.0273 73.1519 21.894C74.6932 20.738 75.9512 19.4687 76.9259 18.086C77.9232 16.6807 78.6486 15.2073 79.1019 13.666C79.5779 12.102 79.8159 10.5267 79.8159 8.94V4.86H68.8679V3.228H84.9159V9.008C84.9159 10.9573 84.5079 12.85 83.6919 14.686C82.8986 16.4993 81.7652 18.1767 80.2919 19.718C78.8186 21.2593 77.0392 22.608 74.9539 23.764C72.8685 24.92 70.5565 25.7813 68.0179 26.348L67.5759 24.75ZM89.9819 1.494H95.0819V32.332H89.9819V1.494Z" fill="#FFFAF3"/>
<path d="M132.158 14.108H127.364V32.332H122.264V1.494H127.364V12.51H132.158V14.108ZM112.336 11.524C112.336 12.952 112.109 14.346 111.656 15.706C112.177 15.4567 112.721 15.4113 113.288 15.57C113.854 15.706 114.398 16.08 114.92 16.692L120.972 23.832L117.606 26.28L111.214 16.76C110.738 17.8707 110.126 18.9133 109.378 19.888C108.63 20.84 107.768 21.724 106.794 22.54C105.842 23.3333 104.799 24.0587 103.666 24.716C102.555 25.3507 101.388 25.8833 100.164 26.314L99.3138 24.716C100.764 23.832 101.988 22.8913 102.986 21.894C104.006 20.8967 104.822 19.8427 105.434 18.732C106.068 17.5987 106.522 16.3973 106.794 15.128C107.088 13.8587 107.236 12.4987 107.236 11.048V2.888H112.336V11.524Z" fill="#FFFAF3"/>
</svg>
