<svg width="119" height="157" viewBox="0 0 119 157" fill="none" xmlns="http://www.w3.org/2000/svg">
<path d="M103.596 147.934H118.726V153.818H73.9672V140.79C71.8658 145.413 68.2936 149.195 63.2503 152.137C58.3472 155.219 53.0238 156.76 47.2802 156.76C39.0149 156.76 31.2399 154.869 23.9553 151.086C16.8107 147.304 10.997 141.77 6.51416 134.486C2.17139 127.061 0 118.305 0 108.219C0 98.1326 2.17139 89.447 6.51416 82.1624C10.997 74.7377 16.7407 69.1341 23.7451 65.3517C30.8897 61.5693 38.5246 59.6781 46.6497 59.6781C52.6736 59.6781 58.1371 61.219 63.0402 64.301C68.0834 67.2429 71.7257 71.0253 73.9672 75.6482V5.88376H58.8375V0H103.596V147.934ZM73.9672 97.292C73.9672 90.2876 72.8465 84.4038 70.605 79.6408C68.3636 74.8778 65.4918 71.3755 61.9895 69.1341C58.4873 66.8926 54.845 65.772 51.0626 65.772C44.8986 65.772 40.2757 69.4843 37.1937 76.909C34.2518 84.1937 32.7809 94.6303 32.7809 108.219C32.7809 121.808 34.2518 132.314 37.1937 139.739C40.2757 147.024 44.8986 150.666 51.0626 150.666C54.845 150.666 58.4873 149.545 61.9895 147.304C65.4918 145.063 68.3636 141.56 70.605 136.797C72.8465 132.034 73.9672 126.15 73.9672 119.146V97.292Z" fill="#FFFAF3"/>
</svg>
