<svg width="107" height="97" viewBox="0 0 107 97" fill="none" xmlns="http://www.w3.org/2000/svg">
<path d="M106.538 86.7854C104.437 90.4277 101.565 93.0193 97.9224 94.5603C94.4202 96.1013 89.7973 96.8718 84.0536 96.8718C77.6095 96.8718 72.3562 95.611 68.2936 93.0894C64.3711 90.5678 62.0596 87.1356 61.3591 82.7928C59.3979 86.8554 55.9657 90.2175 51.0626 92.8792C46.2995 95.5409 40.4858 96.8718 33.6214 96.8718C24.6557 96.8718 16.8107 94.7704 10.0864 90.5678C3.36214 86.3651 0 79.7809 0 70.8152C0 53.5842 20.4531 44.1982 61.3591 42.6572V27.3174C61.3591 20.1729 60.0283 14.8495 57.3666 11.3472C54.7049 7.84501 50.9925 6.09389 46.2295 6.09389C42.5872 6.09389 39.5752 6.5842 37.1937 7.56482C36.073 7.98509 35.0223 8.96572 34.0417 10.5067L18.9121 34.6721C16.1103 36.3532 12.6781 37.0536 8.61549 36.7735V11.5574C12.6781 8.6155 18.2817 5.9538 25.4262 3.57228C32.5708 1.19076 39.5052 0 46.2295 0C58.9776 0 69.5544 2.87183 77.9597 8.6155C86.5052 14.3592 90.7779 22.9046 90.7779 34.2519V81.9523C90.7779 84.7541 91.0581 86.7153 91.6184 87.836C92.3189 88.9567 93.5096 89.5171 95.1907 89.5171C97.8524 89.5171 100.164 87.6959 102.125 84.0536L106.538 86.7854ZM43.2876 90.3576C46.0894 90.3576 48.8912 89.377 51.693 87.4158C54.4947 85.5946 56.8062 83.2131 58.6274 80.2712C60.4486 77.1892 61.3591 73.9672 61.3591 70.605V47.7004C51.9732 47.9806 44.4784 50.0119 38.8748 53.7943C33.2712 57.5767 30.4694 63.0402 30.4694 70.1848C30.4694 83.6333 34.7422 90.3576 43.2876 90.3576Z" fill="#FFFAF3"/>
</svg>
