<svg width="80" height="98" viewBox="0 0 80 98" fill="none" xmlns="http://www.w3.org/2000/svg">
<path d="M1.2608 27.1073C1.2608 35.0924 3.43219 41.4665 7.77496 46.2295C12.1177 50.8524 18.2116 54.4948 26.0566 57.1565L42.4471 62.8301C49.4516 65.2116 54.2846 67.3129 56.9463 69.1341C59.7481 70.8152 61.149 73.5469 61.149 77.3293C61.149 82.0924 59.3979 85.5946 55.8957 87.836C52.5335 90.2175 47.7705 91.4083 41.6065 91.4083C32.2206 91.4083 24.1654 88.4664 17.4411 82.5827C10.7168 76.5588 6.79433 68.8539 5.67361 59.4679H0V96.2414H6.30402C7.845 92.3189 10.1565 90.3576 13.2384 90.3576C14.9195 90.3576 16.7407 90.8479 18.7019 91.8286C22.7645 93.6497 26.5469 95.0506 30.0492 96.0312C33.6915 97.0119 37.8241 97.5022 42.4471 97.5022C52.6736 97.5022 61.3591 94.9806 68.5037 89.9374C75.7883 85.0342 79.4307 77.9597 79.4307 68.7138C79.4307 60.1684 77.2593 53.6542 72.9165 49.1714C68.7138 44.5484 62.4098 40.766 54.0045 37.8241L37.614 32.1505C31.0298 29.9091 26.3368 27.8778 23.535 26.0566C20.8733 24.2355 19.5424 21.6438 19.5424 18.2817C19.5424 14.6393 20.9434 11.7675 23.7451 9.66617C26.687 7.42474 30.3994 6.30402 34.8822 6.30402C43.5678 6.30402 51.0626 8.68554 57.3666 13.4486C63.6706 18.0715 67.2429 24.3055 68.0834 32.1505H73.757V0H67.2429C65.842 3.78241 63.7407 5.67362 60.9389 5.67362C59.6781 5.67362 57.997 5.25336 55.8957 4.41282C49.4516 1.61103 42.4471 0.210136 34.8822 0.210136C28.9985 0.210136 23.465 1.33085 18.2816 3.57228C13.2384 5.67362 9.10581 8.75559 5.88376 12.8182C2.80179 16.8808 1.2608 21.6438 1.2608 27.1073Z" fill="#FFFAF3"/>
</svg>
