<svg width="43" height="27" viewBox="0 0 43 27" fill="none" xmlns="http://www.w3.org/2000/svg">
<g clip-path="url(#clip0_31_16785)">
<path d="M36.5036 0H0.681674C0.500883 0 0.327485 0.0698922 0.199647 0.194302C0.0718081 0.318712 0 0.487449 0 0.663391V16.4521C0 16.628 0.0718081 16.7968 0.199647 16.9212C0.327485 17.0456 0.500883 17.1155 0.681674 17.1155H3.65376V15.7887H1.36335V1.32678H26.5853V3.55577H37.1717V0.663391C37.1717 0.489723 37.1018 0.322964 36.9769 0.198928C36.852 0.0748927 36.6821 0.00347334 36.5036 0Z" fill="#2C2C2C"/>
<path d="M40.1716 3.55579H4.34964C4.16885 3.55579 3.99545 3.62568 3.86762 3.75009C3.73978 3.8745 3.66797 4.04323 3.66797 4.21918V20.0079C3.66797 20.1838 3.73978 20.3526 3.86762 20.477C3.99545 20.6014 4.16885 20.6713 4.34964 20.6713H28.6854C28.6603 20.451 28.6489 20.2295 28.6513 20.0079C28.6491 19.7863 28.6604 19.5648 28.6854 19.3445H5.03132V4.88257H30.2533V15.603C30.4645 15.3544 30.6922 15.1195 30.9349 14.8998C31.1512 14.7058 31.3788 14.5241 31.6166 14.3558C32.8402 13.4888 34.3158 13.0241 35.8293 13.029C36.2872 13.0294 36.7438 13.0739 37.1927 13.1617C38.5721 13.421 39.8427 14.0692 40.8465 15.0258V4.21918C40.8465 4.04438 40.7756 3.87664 40.6492 3.75242C40.5229 3.6282 40.3512 3.55753 40.1716 3.55579Z" fill="#2C2C2C"/>
<path d="M40.8527 15.0125C39.8489 14.056 38.5783 13.4077 37.1989 13.1484C36.7501 13.0606 36.2934 13.0162 35.8356 13.0157C34.3221 13.0108 32.8463 13.4756 31.6228 14.3425C31.385 14.5109 31.1574 14.6925 30.9411 14.8865C30.6984 15.1062 30.4707 15.3411 30.2594 15.5897C29.8761 16.0533 29.5533 16.5613 29.2983 17.1022C28.9657 17.8061 28.7582 18.5598 28.6848 19.3312C28.6598 19.5515 28.6485 19.773 28.6507 19.9946C28.6483 20.2162 28.6597 20.4377 28.6848 20.658C28.8544 22.3894 29.6809 23.9972 31.0032 25.1675C32.3254 26.3377 34.0483 26.9863 35.8356 26.9867C37.7405 26.985 39.567 26.2477 40.914 24.9368C42.261 23.6259 43.0186 21.8485 43.0204 19.9946C43.018 19.0656 42.825 18.1463 42.4528 17.2908C42.0806 16.4353 41.5366 15.6607 40.8527 15.0125ZM35.8356 25.6732C34.4102 25.6716 33.0349 25.1617 31.9697 24.24C30.9045 23.3183 30.2233 22.0487 30.055 20.6713C30.0275 20.4511 30.0139 20.2296 30.0141 20.0079C30.0139 19.7861 30.0275 19.5646 30.055 19.3445C30.0948 19.0144 30.1632 18.6882 30.2594 18.3693C30.3997 17.9312 30.5919 17.5104 30.8321 17.1155C30.8724 17.0604 30.9088 17.0028 30.9411 16.943C31.1433 16.6438 31.3713 16.3619 31.6228 16.1005C32.166 15.545 32.8195 15.1027 33.5437 14.8005C34.2679 14.4983 35.0476 14.3425 35.8356 14.3425C36.2953 14.3433 36.7531 14.399 37.1989 14.5084C37.9596 14.6897 38.6751 15.0181 39.3028 15.474C39.9304 15.9298 40.4575 16.5038 40.8527 17.1619C41.3775 18.0259 41.6552 19.0108 41.657 20.0145C41.6534 21.5177 41.0368 22.9579 39.9427 24.019C38.8486 25.08 37.3665 25.675 35.8219 25.6732H35.8356Z" fill="#2C2C2C"/>
<path d="M39.2575 18.5882C39.1297 18.4647 38.957 18.3953 38.7769 18.3953C38.5968 18.3953 38.424 18.4647 38.2963 18.5882L36.1558 20.6713L35.8218 20.9963L35.4878 20.6713L33.3405 18.5882C33.2128 18.4647 33.04 18.3953 32.8599 18.3953C32.6799 18.3953 32.5071 18.4647 32.3794 18.5882C32.3155 18.6499 32.2648 18.7233 32.2302 18.8041C32.1956 18.8849 32.1777 18.9716 32.1777 19.0592C32.1777 19.1468 32.1956 19.2335 32.2302 19.3143C32.2648 19.3952 32.3155 19.4686 32.3794 19.5302L33.5587 20.6713L35.3378 22.4093C35.4015 22.4708 35.4771 22.5195 35.5601 22.5525C35.6432 22.5855 35.7321 22.6022 35.8218 22.6017C36.0007 22.601 36.172 22.5319 36.299 22.4093L38.085 20.6713L39.2575 19.5302C39.3214 19.4686 39.3721 19.3952 39.4067 19.3143C39.4413 19.2335 39.4591 19.1468 39.4591 19.0592C39.4591 18.9716 39.4413 18.8849 39.4067 18.8041C39.3721 18.7233 39.3214 18.6499 39.2575 18.5882Z" fill="#2C2C2C"/>
<path d="M9.26371 9.81818H19.2366C19.4174 9.81818 19.5908 9.74828 19.7186 9.62387C19.8464 9.49946 19.9183 9.33073 19.9183 9.15479C19.9183 8.97884 19.8464 8.81011 19.7186 8.6857C19.5908 8.56129 19.4174 8.49139 19.2366 8.49139H9.26371C9.08291 8.49139 8.90952 8.56129 8.78168 8.6857C8.65384 8.81011 8.58203 8.97884 8.58203 9.15479C8.58203 9.33073 8.65384 9.49946 8.78168 9.62387C8.90952 9.74828 9.08291 9.81818 9.26371 9.81818Z" fill="#2C2C2C"/>
<path d="M24.4933 13.3541H9.28519C9.1044 13.3541 8.931 13.424 8.80316 13.5484C8.67532 13.6728 8.60352 13.8415 8.60352 14.0175C8.60352 14.1934 8.67532 14.3621 8.80316 14.4865C8.931 14.611 9.1044 14.6808 9.28519 14.6808H24.4933C24.6741 14.6808 24.8475 14.611 24.9753 14.4865C25.1032 14.3621 25.175 14.1934 25.175 14.0175C25.175 13.8415 25.1032 13.6728 24.9753 13.5484C24.8475 13.424 24.6741 13.3541 24.4933 13.3541Z" fill="#2C2C2C"/>
</g>
<defs>
<clipPath id="clip0_31_16785">
<rect width="43" height="27" fill="white"/>
</clipPath>
</defs>
</svg>
